<svg xmlns="http://www.w3.org/2000/svg" version="1.1" xmlns:xlink="http://www.w3.org/1999/xlink" xmlns:svgjs="http://svgjs.com/svgjs" width="1440" height="560" preserveAspectRatio="none" viewBox="0 0 1440 560"><g mask="url(&quot;#SvgjsMask1006&quot;)" fill="none"><rect width="1440" height="560" x="0" y="0" fill="rgba(16, 14, 71, 1)"></rect><path d="M-81.79 372.19L-81.79 372.19" stroke="rgba(19, 23, 101, 1)" stroke-width="1.5"></path><path d="M-81.79 372.19L89.26 396.76" stroke="rgba(19, 23, 101, 1)" stroke-width="1.5"></path><path d="M-81.79 372.19L99.09 527.31" stroke="rgba(19, 23, 101, 1)" stroke-width="1.5"></path><path d="M-81.79 372.19L193.07 405.63" stroke="rgba(19, 23, 101, 1)" stroke-width="1.5"></path><path d="M-81.79 372.19L-83.4 708.85" stroke="rgba(19, 23, 101, 1)" stroke-width="1.5"></path><path d="M-83.4 708.85L-83.4 708.85" stroke="rgba(19, 23, 101, 1)" stroke-width="1.5"></path><path d="M-83.4 708.85L73.87 705.79" stroke="rgba(19, 23, 101, 1)" stroke-width="1.5"></path><path d="M-83.4 708.85L99.09 527.31" stroke="rgba(19, 23, 101, 1)" stroke-width="1.5"></path><path d="M-83.4 708.85L244.94 700.12" stroke="rgba(19, 23, 101, 1)" stroke-width="1.5"></path><path d="M-83.4 708.85L89.26 396.76" stroke="rgba(19, 23, 101, 1)" stroke-width="1.5"></path><path d="M89.26 396.76L89.26 396.76" stroke="rgba(19, 23, 101, 1)" stroke-width="1.5"></path><path d="M89.26 396.76L193.07 405.63" stroke="rgba(19, 23, 101, 1)" stroke-width="1.5"></path><path d="M89.26 396.76L99.09 527.31" stroke="rgba(19, 23, 101, 1)" stroke-width="1.5"></path><path d="M89.26 396.76L252.63 493.13" stroke="rgba(19, 23, 101, 1)" stroke-width="1.5"></path><path d="M89.26 396.76L361.64 392" stroke="rgba(19, 23, 101, 1)" stroke-width="1.5"></path><path d="M99.09 527.31L99.09 527.31" stroke="rgba(19, 23, 101, 1)" stroke-width="1.5"></path><path d="M99.09 527.31L193.07 405.63" stroke="rgba(19, 23, 101, 1)" stroke-width="1.5"></path><path d="M99.09 527.31L252.63 493.13" stroke="rgba(19, 23, 101, 1)" stroke-width="1.5"></path><path d="M99.09 527.31L73.87 705.79" stroke="rgba(19, 23, 101, 1)" stroke-width="1.5"></path><path d="M73.87 705.79L73.87 705.79" stroke="rgba(19, 23, 101, 1)" stroke-width="1.5"></path><path d="M73.87 705.79L244.94 700.12" stroke="rgba(19, 23, 101, 1)" stroke-width="1.5"></path><path d="M73.87 705.79L252.63 493.13" stroke="rgba(19, 23, 101, 1)" stroke-width="1.5"></path><path d="M73.87 705.79L89.26 396.76" stroke="rgba(19, 23, 101, 1)" stroke-width="1.5"></path><path d="M73.87 705.79L193.07 405.63" stroke="rgba(19, 23, 101, 1)" stroke-width="1.5"></path><path d="M193.07 405.63L193.07 405.63" stroke="rgba(19, 23, 101, 1)" stroke-width="1.5"></path><path d="M193.07 405.63L252.63 493.13" stroke="rgba(19, 23, 101, 1)" stroke-width="1.5"></path><path d="M193.07 405.63L361.64 392" stroke="rgba(19, 23, 101, 1)" stroke-width="1.5"></path><path d="M193.07 405.63L390.6 558.36" stroke="rgba(19, 23, 101, 1)" stroke-width="1.5"></path><path d="M252.63 493.13L252.63 493.13" stroke="rgba(19, 23, 101, 1)" stroke-width="1.5"></path><path d="M252.63 493.13L361.64 392" stroke="rgba(19, 23, 101, 1)" stroke-width="1.5"></path><path d="M252.63 493.13L390.6 558.36" stroke="rgba(19, 23, 101, 1)" stroke-width="1.5"></path><path d="M244.94 700.12L244.94 700.12" stroke="rgba(19, 23, 101, 1)" stroke-width="1.5"></path><path d="M244.94 700.12L401.2 652.82" stroke="rgba(19, 23, 101, 1)" stroke-width="1.5"></path><path d="M361.64 392L361.64 392" stroke="rgba(19, 23, 101, 1)" stroke-width="1.5"></path><path d="M361.64 392L490.4 350.72" stroke="rgba(19, 23, 101, 1)" stroke-width="1.5"></path><path d="M361.64 392L390.6 558.36" stroke="rgba(19, 23, 101, 1)" stroke-width="1.5"></path><path d="M361.64 392L534.6 557.32" stroke="rgba(19, 23, 101, 1)" stroke-width="1.5"></path><path d="M361.64 392L401.2 652.82" stroke="rgba(19, 23, 101, 1)" stroke-width="1.5"></path><path d="M390.6 558.36L390.6 558.36" stroke="rgba(19, 23, 101, 1)" stroke-width="1.5"></path><path d="M390.6 558.36L401.2 652.82" stroke="rgba(19, 23, 101, 1)" stroke-width="1.5"></path><path d="M390.6 558.36L496.28 649.15" stroke="rgba(19, 23, 101, 1)" stroke-width="1.5"></path><path d="M390.6 558.36L534.6 557.32" stroke="rgba(19, 23, 101, 1)" stroke-width="1.5"></path><path d="M390.6 558.36L244.94 700.12" stroke="rgba(19, 23, 101, 1)" stroke-width="1.5"></path><path d="M401.2 652.82L401.2 652.82" stroke="rgba(19, 23, 101, 1)" stroke-width="1.5"></path><path d="M401.2 652.82L496.28 649.15" stroke="rgba(19, 23, 101, 1)" stroke-width="1.5"></path><path d="M401.2 652.82L534.6 557.32" stroke="rgba(19, 23, 101, 1)" stroke-width="1.5"></path><path d="M490.4 350.72L490.4 350.72" stroke="rgba(19, 23, 101, 1)" stroke-width="1.5"></path><path d="M490.4 350.72L534.6 557.32" stroke="rgba(19, 23, 101, 1)" stroke-width="1.5"></path><path d="M490.4 350.72L390.6 558.36" stroke="rgba(19, 23, 101, 1)" stroke-width="1.5"></path><path d="M534.6 557.32L534.6 557.32" stroke="rgba(19, 23, 101, 1)" stroke-width="1.5"></path><path d="M534.6 557.32L496.28 649.15" stroke="rgba(19, 23, 101, 1)" stroke-width="1.5"></path><path d="M534.6 557.32L645.94 656.06" stroke="rgba(19, 23, 101, 1)" stroke-width="1.5"></path><path d="M496.28 649.15L496.28 649.15" stroke="rgba(19, 23, 101, 1)" stroke-width="1.5"></path><path d="M496.28 649.15L645.94 656.06" stroke="rgba(19, 23, 101, 1)" stroke-width="1.5"></path><path d="M496.28 649.15L244.94 700.12" stroke="rgba(19, 23, 101, 1)" stroke-width="1.5"></path><path d="M496.28 649.15L252.63 493.13" stroke="rgba(19, 23, 101, 1)" stroke-width="1.5"></path><path d="M645.94 656.06L645.94 656.06" stroke="rgba(19, 23, 101, 1)" stroke-width="1.5"></path><path d="M858.55 76.95L858.55 76.95" stroke="rgba(19, 23, 101, 1)" stroke-width="1.5"></path><path d="M858.55 76.95L988.38 64.06" stroke="rgba(19, 23, 101, 1)" stroke-width="1.5"></path><path d="M858.55 76.95L839.34 234.64" stroke="rgba(19, 23, 101, 1)" stroke-width="1.5"></path><path d="M858.55 76.95L987.11 -57.62" stroke="rgba(19, 23, 101, 1)" stroke-width="1.5"></path><path d="M858.55 76.95L953.25 244.69" stroke="rgba(19, 23, 101, 1)" stroke-width="1.5"></path><path d="M858.55 76.95L1093.71 40.3" stroke="rgba(19, 23, 101, 1)" stroke-width="1.5"></path><path d="M839.34 234.64L839.34 234.64" stroke="rgba(19, 23, 101, 1)" stroke-width="1.5"></path><path d="M839.34 234.64L953.25 244.69" stroke="rgba(19, 23, 101, 1)" stroke-width="1.5"></path><path d="M839.34 234.64L790.83 378.02" stroke="rgba(19, 23, 101, 1)" stroke-width="1.5"></path><path d="M790.83 378.02L790.83 378.02" stroke="rgba(19, 23, 101, 1)" stroke-width="1.5"></path><path d="M790.83 378.02L853.34 487.94" stroke="rgba(19, 23, 101, 1)" stroke-width="1.5"></path><path d="M790.83 378.02L963.11 380.41" stroke="rgba(19, 23, 101, 1)" stroke-width="1.5"></path><path d="M790.83 378.02L953.25 244.69" stroke="rgba(19, 23, 101, 1)" stroke-width="1.5"></path><path d="M853.34 487.94L853.34 487.94" stroke="rgba(19, 23, 101, 1)" stroke-width="1.5"></path><path d="M853.34 487.94L963.11 380.41" stroke="rgba(19, 23, 101, 1)" stroke-width="1.5"></path><path d="M853.34 487.94L1012.25 492.02" stroke="rgba(19, 23, 101, 1)" stroke-width="1.5"></path><path d="M853.34 487.94L842.62 699.02" stroke="rgba(19, 23, 101, 1)" stroke-width="1.5"></path><path d="M842.62 699.02L842.62 699.02" stroke="rgba(19, 23, 101, 1)" stroke-width="1.5"></path><path d="M842.62 699.02L941.64 705.2" stroke="rgba(19, 23, 101, 1)" stroke-width="1.5"></path><path d="M842.62 699.02L645.94 656.06" stroke="rgba(19, 23, 101, 1)" stroke-width="1.5"></path><path d="M987.11 -57.62L987.11 -57.62" stroke="rgba(19, 23, 101, 1)" stroke-width="1.5"></path><path d="M987.11 -57.62L988.38 64.06" stroke="rgba(19, 23, 101, 1)" stroke-width="1.5"></path><path d="M987.11 -57.62L1093.71 40.3" stroke="rgba(19, 23, 101, 1)" stroke-width="1.5"></path><path d="M988.38 64.06L988.38 64.06" stroke="rgba(19, 23, 101, 1)" stroke-width="1.5"></path><path d="M988.38 64.06L1093.71 40.3" stroke="rgba(19, 23, 101, 1)" stroke-width="1.5"></path><path d="M988.38 64.06L953.25 244.69" stroke="rgba(19, 23, 101, 1)" stroke-width="1.5"></path><path d="M988.38 64.06L1087.75 234.05" stroke="rgba(19, 23, 101, 1)" stroke-width="1.5"></path><path d="M953.25 244.69L953.25 244.69" stroke="rgba(19, 23, 101, 1)" stroke-width="1.5"></path><path d="M953.25 244.69L1087.75 234.05" stroke="rgba(19, 23, 101, 1)" stroke-width="1.5"></path><path d="M953.25 244.69L963.11 380.41" stroke="rgba(19, 23, 101, 1)" stroke-width="1.5"></path><path d="M963.11 380.41L963.11 380.41" stroke="rgba(19, 23, 101, 1)" stroke-width="1.5"></path><path d="M963.11 380.41L1012.25 492.02" stroke="rgba(19, 23, 101, 1)" stroke-width="1.5"></path><path d="M1012.25 492.02L1012.25 492.02" stroke="rgba(19, 23, 101, 1)" stroke-width="1.5"></path><path d="M1012.25 492.02L1143.64 547.86" stroke="rgba(19, 23, 101, 1)" stroke-width="1.5"></path><path d="M1012.25 492.02L1096.54 684.71" stroke="rgba(19, 23, 101, 1)" stroke-width="1.5"></path><path d="M941.64 705.2L941.64 705.2" stroke="rgba(19, 23, 101, 1)" stroke-width="1.5"></path><path d="M1093.71 40.3L1093.71 40.3" stroke="rgba(19, 23, 101, 1)" stroke-width="1.5"></path><path d="M1093.71 40.3L1273.13 96.99" stroke="rgba(19, 23, 101, 1)" stroke-width="1.5"></path><path d="M1087.75 234.05L1087.75 234.05" stroke="rgba(19, 23, 101, 1)" stroke-width="1.5"></path><path d="M1087.75 234.05L1160.84 342.27" stroke="rgba(19, 23, 101, 1)" stroke-width="1.5"></path><path d="M1160.84 342.27L1160.84 342.27" stroke="rgba(19, 23, 101, 1)" stroke-width="1.5"></path><path d="M1160.84 342.27L1283.53 401.47" stroke="rgba(19, 23, 101, 1)" stroke-width="1.5"></path><path d="M1143.64 547.86L1143.64 547.86" stroke="rgba(19, 23, 101, 1)" stroke-width="1.5"></path><path d="M1143.64 547.86L1246.07 522.82" stroke="rgba(19, 23, 101, 1)" stroke-width="1.5"></path><path d="M1143.64 547.86L1096.54 684.71" stroke="rgba(19, 23, 101, 1)" stroke-width="1.5"></path><path d="M1143.64 547.86L1244.32 671.8" stroke="rgba(19, 23, 101, 1)" stroke-width="1.5"></path><path d="M1143.64 547.86L1283.53 401.47" stroke="rgba(19, 23, 101, 1)" stroke-width="1.5"></path><path d="M1143.64 547.86L1160.84 342.27" stroke="rgba(19, 23, 101, 1)" stroke-width="1.5"></path><path d="M1096.54 684.71L1096.54 684.71" stroke="rgba(19, 23, 101, 1)" stroke-width="1.5"></path><path d="M1096.54 684.71L1244.32 671.8" stroke="rgba(19, 23, 101, 1)" stroke-width="1.5"></path><path d="M1096.54 684.71L941.64 705.2" stroke="rgba(19, 23, 101, 1)" stroke-width="1.5"></path><path d="M1096.54 684.71L1246.07 522.82" stroke="rgba(19, 23, 101, 1)" stroke-width="1.5"></path><path d="M1096.54 684.71L842.62 699.02" stroke="rgba(19, 23, 101, 1)" stroke-width="1.5"></path><path d="M1302.43 -57.18L1302.43 -57.18" stroke="rgba(19, 23, 101, 1)" stroke-width="1.5"></path><path d="M1302.43 -57.18L1424.09 -68.09" stroke="rgba(19, 23, 101, 1)" stroke-width="1.5"></path><path d="M1302.43 -57.18L1273.13 96.99" stroke="rgba(19, 23, 101, 1)" stroke-width="1.5"></path><path d="M1273.13 96.99L1273.13 96.99" stroke="rgba(19, 23, 101, 1)" stroke-width="1.5"></path><path d="M1273.13 96.99L1267.64 230.73" stroke="rgba(19, 23, 101, 1)" stroke-width="1.5"></path><path d="M1267.64 230.73L1267.64 230.73" stroke="rgba(19, 23, 101, 1)" stroke-width="1.5"></path><path d="M1267.64 230.73L1160.84 342.27" stroke="rgba(19, 23, 101, 1)" stroke-width="1.5"></path><path d="M1283.53 401.47L1283.53 401.47" stroke="rgba(19, 23, 101, 1)" stroke-width="1.5"></path><path d="M1283.53 401.47L1246.07 522.82" stroke="rgba(19, 23, 101, 1)" stroke-width="1.5"></path><path d="M1283.53 401.47L1423.97 394.15" stroke="rgba(19, 23, 101, 1)" stroke-width="1.5"></path><path d="M1246.07 522.82L1246.07 522.82" stroke="rgba(19, 23, 101, 1)" stroke-width="1.5"></path><path d="M1246.07 522.82L1244.32 671.8" stroke="rgba(19, 23, 101, 1)" stroke-width="1.5"></path><path d="M1246.07 522.82L1444.22 509.18" stroke="rgba(19, 23, 101, 1)" stroke-width="1.5"></path><path d="M1244.32 671.8L1244.32 671.8" stroke="rgba(19, 23, 101, 1)" stroke-width="1.5"></path><path d="M1244.32 671.8L1400.34 684.44" stroke="rgba(19, 23, 101, 1)" stroke-width="1.5"></path><path d="M1424.09 -68.09L1424.09 -68.09" stroke="rgba(19, 23, 101, 1)" stroke-width="1.5"></path><path d="M1424.09 -68.09L1449.92 41.51" stroke="rgba(19, 23, 101, 1)" stroke-width="1.5"></path><path d="M1424.09 -68.09L1543.97 -94.74" stroke="rgba(19, 23, 101, 1)" stroke-width="1.5"></path><path d="M1424.09 -68.09L1273.13 96.99" stroke="rgba(19, 23, 101, 1)" stroke-width="1.5"></path><path d="M1424.09 -68.09L1593.88 82.04" stroke="rgba(19, 23, 101, 1)" stroke-width="1.5"></path><path d="M1449.92 41.51L1449.92 41.51" stroke="rgba(19, 23, 101, 1)" stroke-width="1.5"></path><path d="M1449.92 41.51L1593.88 82.04" stroke="rgba(19, 23, 101, 1)" stroke-width="1.5"></path><path d="M1446.68 251.46L1446.68 251.46" stroke="rgba(19, 23, 101, 1)" stroke-width="1.5"></path><path d="M1446.68 251.46L1423.97 394.15" stroke="rgba(19, 23, 101, 1)" stroke-width="1.5"></path><path d="M1446.68 251.46L1606.73 242.08" stroke="rgba(19, 23, 101, 1)" stroke-width="1.5"></path><path d="M1446.68 251.46L1551.98 394.1" stroke="rgba(19, 23, 101, 1)" stroke-width="1.5"></path><path d="M1423.97 394.15L1423.97 394.15" stroke="rgba(19, 23, 101, 1)" stroke-width="1.5"></path><path d="M1423.97 394.15L1444.22 509.18" stroke="rgba(19, 23, 101, 1)" stroke-width="1.5"></path><path d="M1423.97 394.15L1551.98 394.1" stroke="rgba(19, 23, 101, 1)" stroke-width="1.5"></path><path d="M1423.97 394.15L1549.06 526.38" stroke="rgba(19, 23, 101, 1)" stroke-width="1.5"></path><path d="M1444.22 509.18L1444.22 509.18" stroke="rgba(19, 23, 101, 1)" stroke-width="1.5"></path><path d="M1444.22 509.18L1549.06 526.38" stroke="rgba(19, 23, 101, 1)" stroke-width="1.5"></path><path d="M1444.22 509.18L1551.98 394.1" stroke="rgba(19, 23, 101, 1)" stroke-width="1.5"></path><path d="M1444.22 509.18L1400.34 684.44" stroke="rgba(19, 23, 101, 1)" stroke-width="1.5"></path><path d="M1400.34 684.44L1400.34 684.44" stroke="rgba(19, 23, 101, 1)" stroke-width="1.5"></path><path d="M1400.34 684.44L1588.91 676.83" stroke="rgba(19, 23, 101, 1)" stroke-width="1.5"></path><path d="M1400.34 684.44L1549.06 526.38" stroke="rgba(19, 23, 101, 1)" stroke-width="1.5"></path><path d="M1400.34 684.44L1246.07 522.82" stroke="rgba(19, 23, 101, 1)" stroke-width="1.5"></path><path d="M1543.97 -94.74L1543.97 -94.74" stroke="rgba(19, 23, 101, 1)" stroke-width="1.5"></path><path d="M1543.97 -94.74L1449.92 41.51" stroke="rgba(19, 23, 101, 1)" stroke-width="1.5"></path><path d="M1543.97 -94.74L1593.88 82.04" stroke="rgba(19, 23, 101, 1)" stroke-width="1.5"></path><path d="M1543.97 -94.74L1302.43 -57.18" stroke="rgba(19, 23, 101, 1)" stroke-width="1.5"></path><path d="M1543.97 -94.74L1273.13 96.99" stroke="rgba(19, 23, 101, 1)" stroke-width="1.5"></path><path d="M1593.88 82.04L1593.88 82.04" stroke="rgba(19, 23, 101, 1)" stroke-width="1.5"></path><path d="M1593.88 82.04L1606.73 242.08" stroke="rgba(19, 23, 101, 1)" stroke-width="1.5"></path><path d="M1593.88 82.04L1446.68 251.46" stroke="rgba(19, 23, 101, 1)" stroke-width="1.5"></path><path d="M1593.88 82.04L1551.98 394.1" stroke="rgba(19, 23, 101, 1)" stroke-width="1.5"></path><path d="M1606.73 242.08L1606.73 242.08" stroke="rgba(19, 23, 101, 1)" stroke-width="1.5"></path><path d="M1606.73 242.08L1551.98 394.1" stroke="rgba(19, 23, 101, 1)" stroke-width="1.5"></path><path d="M1551.98 394.1L1551.98 394.1" stroke="rgba(19, 23, 101, 1)" stroke-width="1.5"></path><path d="M1551.98 394.1L1549.06 526.38" stroke="rgba(19, 23, 101, 1)" stroke-width="1.5"></path><path d="M1549.06 526.38L1549.06 526.38" stroke="rgba(19, 23, 101, 1)" stroke-width="1.5"></path><path d="M1549.06 526.38L1588.91 676.83" stroke="rgba(19, 23, 101, 1)" stroke-width="1.5"></path><path d="M1588.91 676.83L1588.91 676.83" stroke="rgba(19, 23, 101, 1)" stroke-width="1.5"></path><circle r="5" cx="-81.79" cy="372.19" fill="rgba(19, 23, 101, 1)"></circle><circle r="5" cx="-83.4" cy="708.85" fill="rgba(19, 23, 101, 1)"></circle><circle r="5" cx="89.26" cy="396.76" fill="rgba(19, 23, 101, 1)"></circle><circle r="5" cx="99.09" cy="527.31" fill="rgba(19, 23, 101, 1)"></circle><circle r="5" cx="73.87" cy="705.79" fill="rgba(19, 23, 101, 1)"></circle><circle r="5" cx="193.07" cy="405.63" fill="rgba(19, 23, 101, 1)"></circle><circle r="5" cx="252.63" cy="493.13" fill="rgba(19, 23, 101, 1)"></circle><circle r="5" cx="244.94" cy="700.12" fill="rgba(19, 23, 101, 1)"></circle><circle r="5" cx="361.64" cy="392" fill="rgba(19, 23, 101, 1)"></circle><circle r="5" cx="390.6" cy="558.36" fill="rgba(19, 23, 101, 1)"></circle><circle r="5" cx="401.2" cy="652.82" fill="rgba(19, 23, 101, 1)"></circle><circle r="5" cx="490.4" cy="350.72" fill="rgba(19, 23, 101, 1)"></circle><circle r="5" cx="534.6" cy="557.32" fill="rgba(19, 23, 101, 1)"></circle><circle r="5" cx="496.28" cy="649.15" fill="rgba(19, 23, 101, 1)"></circle><circle r="5" cx="645.94" cy="656.06" fill="rgba(19, 23, 101, 1)"></circle><circle r="5" cx="858.55" cy="76.95" fill="rgba(19, 23, 101, 1)"></circle><circle r="5" cx="839.34" cy="234.64" fill="rgba(19, 23, 101, 1)"></circle><circle r="5" cx="790.83" cy="378.02" fill="rgba(19, 23, 101, 1)"></circle><circle r="5" cx="853.34" cy="487.94" fill="rgba(19, 23, 101, 1)"></circle><circle r="5" cx="842.62" cy="699.02" fill="rgba(19, 23, 101, 1)"></circle><circle r="5" cx="987.11" cy="-57.62" fill="rgba(19, 23, 101, 1)"></circle><circle r="5" cx="988.38" cy="64.06" fill="rgba(19, 23, 101, 1)"></circle><circle r="5" cx="953.25" cy="244.69" fill="rgba(19, 23, 101, 1)"></circle><circle r="5" cx="963.11" cy="380.41" fill="rgba(19, 23, 101, 1)"></circle><circle r="5" cx="1012.25" cy="492.02" fill="rgba(19, 23, 101, 1)"></circle><circle r="5" cx="941.64" cy="705.2" fill="rgba(19, 23, 101, 1)"></circle><circle r="5" cx="1093.71" cy="40.3" fill="rgba(19, 23, 101, 1)"></circle><circle r="5" cx="1087.75" cy="234.05" fill="rgba(19, 23, 101, 1)"></circle><circle r="5" cx="1160.84" cy="342.27" fill="rgba(19, 23, 101, 1)"></circle><circle r="5" cx="1143.64" cy="547.86" fill="rgba(19, 23, 101, 1)"></circle><circle r="5" cx="1096.54" cy="684.71" fill="rgba(19, 23, 101, 1)"></circle><circle r="5" cx="1302.43" cy="-57.18" fill="rgba(19, 23, 101, 1)"></circle><circle r="5" cx="1273.13" cy="96.99" fill="rgba(19, 23, 101, 1)"></circle><circle r="5" cx="1267.64" cy="230.73" fill="rgba(19, 23, 101, 1)"></circle><circle r="5" cx="1283.53" cy="401.47" fill="rgba(19, 23, 101, 1)"></circle><circle r="5" cx="1246.07" cy="522.82" fill="rgba(19, 23, 101, 1)"></circle><circle r="5" cx="1244.32" cy="671.8" fill="rgba(19, 23, 101, 1)"></circle><circle r="5" cx="1424.09" cy="-68.09" fill="rgba(19, 23, 101, 1)"></circle><circle r="5" cx="1449.92" cy="41.51" fill="rgba(19, 23, 101, 1)"></circle><circle r="5" cx="1446.68" cy="251.46" fill="rgba(19, 23, 101, 1)"></circle><circle r="5" cx="1423.97" cy="394.15" fill="rgba(19, 23, 101, 1)"></circle><circle r="5" cx="1444.22" cy="509.18" fill="rgba(19, 23, 101, 1)"></circle><circle r="5" cx="1400.34" cy="684.44" fill="rgba(19, 23, 101, 1)"></circle><circle r="5" cx="1543.97" cy="-94.74" fill="rgba(19, 23, 101, 1)"></circle><circle r="5" cx="1593.88" cy="82.04" fill="rgba(19, 23, 101, 1)"></circle><circle r="5" cx="1606.73" cy="242.08" fill="rgba(19, 23, 101, 1)"></circle><circle r="5" cx="1551.98" cy="394.1" fill="rgba(19, 23, 101, 1)"></circle><circle r="5" cx="1549.06" cy="526.38" fill="rgba(19, 23, 101, 1)"></circle><circle r="5" cx="1588.91" cy="676.83" fill="rgba(19, 23, 101, 1)"></circle><path d="M85.12 513.18L85.12 513.18" stroke="hsl(259.20000000000005, 77.2%, 51.5%)" stroke-width="1.5"></path><path d="M85.12 513.18L61.35 647.66" stroke="hsl(259.20000000000005, 77.2%, 51.5%)" stroke-width="1.5"></path><path d="M85.12 513.18L260.56 557.78" stroke="hsl(259.20000000000005, 77.2%, 51.5%)" stroke-width="1.5"></path><path d="M85.12 513.18L-81 644.02" stroke="hsl(259.20000000000005, 77.2%, 51.5%)" stroke-width="1.5"></path><path d="M374.14 705.86L374.14 705.86" stroke="hsl(259.20000000000005, 77.2%, 51.5%)" stroke-width="1.5"></path><path d="M374.14 705.86L257.97 653.01" stroke="hsl(259.20000000000005, 77.2%, 51.5%)" stroke-width="1.5"></path><path d="M374.14 705.86L525.23 698.52" stroke="hsl(259.20000000000005, 77.2%, 51.5%)" stroke-width="1.5"></path><path d="M686.27 400.4L686.27 400.4" stroke="hsl(259.20000000000005, 77.2%, 51.5%)" stroke-width="1.5"></path><path d="M686.27 400.4L828.75 353.51" stroke="hsl(259.20000000000005, 77.2%, 51.5%)" stroke-width="1.5"></path><path d="M686.27 400.4L701.47 555.31" stroke="hsl(259.20000000000005, 77.2%, 51.5%)" stroke-width="1.5"></path><path d="M820.08 704.82L820.08 704.82" stroke="hsl(259.20000000000005, 77.2%, 51.5%)" stroke-width="1.5"></path><path d="M820.08 704.82L950.26 700.08" stroke="hsl(259.20000000000005, 77.2%, 51.5%)" stroke-width="1.5"></path><path d="M820.08 704.82L701.47 555.31" stroke="hsl(259.20000000000005, 77.2%, 51.5%)" stroke-width="1.5"></path><path d="M1282.66 654.91L1282.66 654.91" stroke="hsl(259.20000000000005, 77.2%, 51.5%)" stroke-width="1.5"></path><path d="M1282.66 654.91L1150.78 664.78" stroke="hsl(259.20000000000005, 77.2%, 51.5%)" stroke-width="1.5"></path><path d="M1282.66 654.91L1311.76 493.91" stroke="hsl(259.20000000000005, 77.2%, 51.5%)" stroke-width="1.5"></path><path d="M1282.66 654.91L1455.51 648.6" stroke="hsl(259.20000000000005, 77.2%, 51.5%)" stroke-width="1.5"></path><path d="M1282.66 654.91L1135.32 554.69" stroke="hsl(259.20000000000005, 77.2%, 51.5%)" stroke-width="1.5"></path><path d="M1433.69 67.53L1433.69 67.53" stroke="hsl(259.20000000000005, 77.2%, 51.5%)" stroke-width="1.5"></path><path d="M1433.69 67.53L1411.54 212.83" stroke="hsl(259.20000000000005, 77.2%, 51.5%)" stroke-width="1.5"></path><path d="M1433.69 67.53L1405.76 -83.77" stroke="hsl(259.20000000000005, 77.2%, 51.5%)" stroke-width="1.5"></path><path d="M1424.71 352.27L1424.71 352.27" stroke="hsl(259.20000000000005, 77.2%, 51.5%)" stroke-width="1.5"></path><path d="M1424.71 352.27L1411.54 212.83" stroke="hsl(259.20000000000005, 77.2%, 51.5%)" stroke-width="1.5"></path><path d="M1424.71 352.27L1276.45 379.48" stroke="hsl(259.20000000000005, 77.2%, 51.5%)" stroke-width="1.5"></path><path d="M1424.71 352.27L1587.94 396.36" stroke="hsl(259.20000000000005, 77.2%, 51.5%)" stroke-width="1.5"></path><path d="M1424.71 352.27L1414.82 521.93" stroke="hsl(259.20000000000005, 77.2%, 51.5%)" stroke-width="1.5"></path><path d="M1414.82 521.93L1414.82 521.93" stroke="hsl(259.20000000000005, 77.2%, 51.5%)" stroke-width="1.5"></path><path d="M1414.82 521.93L1311.76 493.91" stroke="hsl(259.20000000000005, 77.2%, 51.5%)" stroke-width="1.5"></path><path d="M1414.82 521.93L1455.51 648.6" stroke="hsl(259.20000000000005, 77.2%, 51.5%)" stroke-width="1.5"></path><path d="M1414.82 521.93L1549.12 552.05" stroke="hsl(259.20000000000005, 77.2%, 51.5%)" stroke-width="1.5"></path><path d="M1414.82 521.93L1282.66 654.91" stroke="hsl(259.20000000000005, 77.2%, 51.5%)" stroke-width="1.5"></path><path d="M1414.82 521.93L1276.45 379.48" stroke="hsl(259.20000000000005, 77.2%, 51.5%)" stroke-width="1.5"></path><path d="M1455.51 648.6L1455.51 648.6" stroke="hsl(259.20000000000005, 77.2%, 51.5%)" stroke-width="1.5"></path><path d="M1455.51 648.6L1549.12 552.05" stroke="hsl(259.20000000000005, 77.2%, 51.5%)" stroke-width="1.5"></path><path d="M-81 644.02L-81 644.02" stroke="hsl(259.20000000000005, 77.2%, 51.5%)" stroke-width="1.5"></path><path d="M-81 644.02L61.35 647.66" stroke="hsl(259.20000000000005, 77.2%, 51.5%)" stroke-width="1.5"></path><path d="M-81 644.02L257.97 653.01" stroke="hsl(259.20000000000005, 77.2%, 51.5%)" stroke-width="1.5"></path><path d="M-81 644.02L260.56 557.78" stroke="hsl(259.20000000000005, 77.2%, 51.5%)" stroke-width="1.5"></path><path d="M61.35 647.66L61.35 647.66" stroke="hsl(259.20000000000005, 77.2%, 51.5%)" stroke-width="1.5"></path><path d="M61.35 647.66L257.97 653.01" stroke="hsl(259.20000000000005, 77.2%, 51.5%)" stroke-width="1.5"></path><path d="M61.35 647.66L260.56 557.78" stroke="hsl(259.20000000000005, 77.2%, 51.5%)" stroke-width="1.5"></path><path d="M260.56 557.78L260.56 557.78" stroke="hsl(259.20000000000005, 77.2%, 51.5%)" stroke-width="1.5"></path><path d="M260.56 557.78L257.97 653.01" stroke="hsl(259.20000000000005, 77.2%, 51.5%)" stroke-width="1.5"></path><path d="M260.56 557.78L342.3 490.33" stroke="hsl(259.20000000000005, 77.2%, 51.5%)" stroke-width="1.5"></path><path d="M257.97 653.01L257.97 653.01" stroke="hsl(259.20000000000005, 77.2%, 51.5%)" stroke-width="1.5"></path><path d="M257.97 653.01L342.3 490.33" stroke="hsl(259.20000000000005, 77.2%, 51.5%)" stroke-width="1.5"></path><path d="M257.97 653.01L85.12 513.18" stroke="hsl(259.20000000000005, 77.2%, 51.5%)" stroke-width="1.5"></path><path d="M257.97 653.01L525.23 698.52" stroke="hsl(259.20000000000005, 77.2%, 51.5%)" stroke-width="1.5"></path><path d="M342.3 490.33L342.3 490.33" stroke="hsl(259.20000000000005, 77.2%, 51.5%)" stroke-width="1.5"></path><path d="M342.3 490.33L497.47 503.71" stroke="hsl(259.20000000000005, 77.2%, 51.5%)" stroke-width="1.5"></path><path d="M497.47 503.71L497.47 503.71" stroke="hsl(259.20000000000005, 77.2%, 51.5%)" stroke-width="1.5"></path><path d="M497.47 503.71L525.23 698.52" stroke="hsl(259.20000000000005, 77.2%, 51.5%)" stroke-width="1.5"></path><path d="M497.47 503.71L701.47 555.31" stroke="hsl(259.20000000000005, 77.2%, 51.5%)" stroke-width="1.5"></path><path d="M497.47 503.71L686.27 400.4" stroke="hsl(259.20000000000005, 77.2%, 51.5%)" stroke-width="1.5"></path><path d="M497.47 503.71L374.14 705.86" stroke="hsl(259.20000000000005, 77.2%, 51.5%)" stroke-width="1.5"></path><path d="M497.47 503.71L260.56 557.78" stroke="hsl(259.20000000000005, 77.2%, 51.5%)" stroke-width="1.5"></path><path d="M525.23 698.52L525.23 698.52" stroke="hsl(259.20000000000005, 77.2%, 51.5%)" stroke-width="1.5"></path><path d="M525.23 698.52L701.47 555.31" stroke="hsl(259.20000000000005, 77.2%, 51.5%)" stroke-width="1.5"></path><path d="M701.47 555.31L701.47 555.31" stroke="hsl(259.20000000000005, 77.2%, 51.5%)" stroke-width="1.5"></path><path d="M701.47 555.31L832.04 513.35" stroke="hsl(259.20000000000005, 77.2%, 51.5%)" stroke-width="1.5"></path><path d="M828.75 353.51L828.75 353.51" stroke="hsl(259.20000000000005, 77.2%, 51.5%)" stroke-width="1.5"></path><path d="M828.75 353.51L942.79 361.5" stroke="hsl(259.20000000000005, 77.2%, 51.5%)" stroke-width="1.5"></path><path d="M828.75 353.51L832.04 513.35" stroke="hsl(259.20000000000005, 77.2%, 51.5%)" stroke-width="1.5"></path><path d="M828.75 353.51L701.47 555.31" stroke="hsl(259.20000000000005, 77.2%, 51.5%)" stroke-width="1.5"></path><path d="M828.75 353.51L1007.41 544.32" stroke="hsl(259.20000000000005, 77.2%, 51.5%)" stroke-width="1.5"></path><path d="M832.04 513.35L832.04 513.35" stroke="hsl(259.20000000000005, 77.2%, 51.5%)" stroke-width="1.5"></path><path d="M832.04 513.35L1007.41 544.32" stroke="hsl(259.20000000000005, 77.2%, 51.5%)" stroke-width="1.5"></path><path d="M942.79 361.5L942.79 361.5" stroke="hsl(259.20000000000005, 77.2%, 51.5%)" stroke-width="1.5"></path><path d="M942.79 361.5L832.04 513.35" stroke="hsl(259.20000000000005, 77.2%, 51.5%)" stroke-width="1.5"></path><path d="M942.79 361.5L1007.41 544.32" stroke="hsl(259.20000000000005, 77.2%, 51.5%)" stroke-width="1.5"></path><path d="M942.79 361.5L1120.08 259.69" stroke="hsl(259.20000000000005, 77.2%, 51.5%)" stroke-width="1.5"></path><path d="M942.79 361.5L686.27 400.4" stroke="hsl(259.20000000000005, 77.2%, 51.5%)" stroke-width="1.5"></path><path d="M942.79 361.5L1135.32 554.69" stroke="hsl(259.20000000000005, 77.2%, 51.5%)" stroke-width="1.5"></path><path d="M1007.41 544.32L1007.41 544.32" stroke="hsl(259.20000000000005, 77.2%, 51.5%)" stroke-width="1.5"></path><path d="M1007.41 544.32L1135.32 554.69" stroke="hsl(259.20000000000005, 77.2%, 51.5%)" stroke-width="1.5"></path><path d="M1007.41 544.32L950.26 700.08" stroke="hsl(259.20000000000005, 77.2%, 51.5%)" stroke-width="1.5"></path><path d="M950.26 700.08L950.26 700.08" stroke="hsl(259.20000000000005, 77.2%, 51.5%)" stroke-width="1.5"></path><path d="M950.26 700.08L1150.78 664.78" stroke="hsl(259.20000000000005, 77.2%, 51.5%)" stroke-width="1.5"></path><path d="M950.26 700.08L832.04 513.35" stroke="hsl(259.20000000000005, 77.2%, 51.5%)" stroke-width="1.5"></path><path d="M950.26 700.08L1135.32 554.69" stroke="hsl(259.20000000000005, 77.2%, 51.5%)" stroke-width="1.5"></path><path d="M1120.08 259.69L1120.08 259.69" stroke="hsl(259.20000000000005, 77.2%, 51.5%)" stroke-width="1.5"></path><path d="M1120.08 259.69L1247.55 220.72" stroke="hsl(259.20000000000005, 77.2%, 51.5%)" stroke-width="1.5"></path><path d="M1120.08 259.69L1240.32 109.03" stroke="hsl(259.20000000000005, 77.2%, 51.5%)" stroke-width="1.5"></path><path d="M1120.08 259.69L1276.45 379.48" stroke="hsl(259.20000000000005, 77.2%, 51.5%)" stroke-width="1.5"></path><path d="M1120.08 259.69L1411.54 212.83" stroke="hsl(259.20000000000005, 77.2%, 51.5%)" stroke-width="1.5"></path><path d="M1120.08 259.69L1135.32 554.69" stroke="hsl(259.20000000000005, 77.2%, 51.5%)" stroke-width="1.5"></path><path d="M1135.32 554.69L1135.32 554.69" stroke="hsl(259.20000000000005, 77.2%, 51.5%)" stroke-width="1.5"></path><path d="M1135.32 554.69L1150.78 664.78" stroke="hsl(259.20000000000005, 77.2%, 51.5%)" stroke-width="1.5"></path><path d="M1150.78 664.78L1150.78 664.78" stroke="hsl(259.20000000000005, 77.2%, 51.5%)" stroke-width="1.5"></path><path d="M1298.17 -69.37L1298.17 -69.37" stroke="hsl(259.20000000000005, 77.2%, 51.5%)" stroke-width="1.5"></path><path d="M1298.17 -69.37L1405.76 -83.77" stroke="hsl(259.20000000000005, 77.2%, 51.5%)" stroke-width="1.5"></path><path d="M1240.32 109.03L1240.32 109.03" stroke="hsl(259.20000000000005, 77.2%, 51.5%)" stroke-width="1.5"></path><path d="M1240.32 109.03L1247.55 220.72" stroke="hsl(259.20000000000005, 77.2%, 51.5%)" stroke-width="1.5"></path><path d="M1240.32 109.03L1298.17 -69.37" stroke="hsl(259.20000000000005, 77.2%, 51.5%)" stroke-width="1.5"></path><path d="M1240.32 109.03L1433.69 67.53" stroke="hsl(259.20000000000005, 77.2%, 51.5%)" stroke-width="1.5"></path><path d="M1247.55 220.72L1247.55 220.72" stroke="hsl(259.20000000000005, 77.2%, 51.5%)" stroke-width="1.5"></path><path d="M1247.55 220.72L1276.45 379.48" stroke="hsl(259.20000000000005, 77.2%, 51.5%)" stroke-width="1.5"></path><path d="M1276.45 379.48L1276.45 379.48" stroke="hsl(259.20000000000005, 77.2%, 51.5%)" stroke-width="1.5"></path><path d="M1276.45 379.48L1311.76 493.91" stroke="hsl(259.20000000000005, 77.2%, 51.5%)" stroke-width="1.5"></path><path d="M1311.76 493.91L1311.76 493.91" stroke="hsl(259.20000000000005, 77.2%, 51.5%)" stroke-width="1.5"></path><path d="M1405.76 -83.77L1405.76 -83.77" stroke="hsl(259.20000000000005, 77.2%, 51.5%)" stroke-width="1.5"></path><path d="M1405.76 -83.77L1537.59 -96.17" stroke="hsl(259.20000000000005, 77.2%, 51.5%)" stroke-width="1.5"></path><path d="M1405.76 -83.77L1240.32 109.03" stroke="hsl(259.20000000000005, 77.2%, 51.5%)" stroke-width="1.5"></path><path d="M1411.54 212.83L1411.54 212.83" stroke="hsl(259.20000000000005, 77.2%, 51.5%)" stroke-width="1.5"></path><path d="M1411.54 212.83L1538.12 202.69" stroke="hsl(259.20000000000005, 77.2%, 51.5%)" stroke-width="1.5"></path><path d="M1411.54 212.83L1247.55 220.72" stroke="hsl(259.20000000000005, 77.2%, 51.5%)" stroke-width="1.5"></path><path d="M1411.54 212.83L1240.32 109.03" stroke="hsl(259.20000000000005, 77.2%, 51.5%)" stroke-width="1.5"></path><path d="M1411.54 212.83L1590.03 100.78" stroke="hsl(259.20000000000005, 77.2%, 51.5%)" stroke-width="1.5"></path><path d="M1537.59 -96.17L1537.59 -96.17" stroke="hsl(259.20000000000005, 77.2%, 51.5%)" stroke-width="1.5"></path><path d="M1537.59 -96.17L1433.69 67.53" stroke="hsl(259.20000000000005, 77.2%, 51.5%)" stroke-width="1.5"></path><path d="M1590.03 100.78L1590.03 100.78" stroke="hsl(259.20000000000005, 77.2%, 51.5%)" stroke-width="1.5"></path><path d="M1590.03 100.78L1538.12 202.69" stroke="hsl(259.20000000000005, 77.2%, 51.5%)" stroke-width="1.5"></path><path d="M1590.03 100.78L1433.69 67.53" stroke="hsl(259.20000000000005, 77.2%, 51.5%)" stroke-width="1.5"></path><path d="M1538.12 202.69L1538.12 202.69" stroke="hsl(259.20000000000005, 77.2%, 51.5%)" stroke-width="1.5"></path><path d="M1587.94 396.36L1587.94 396.36" stroke="hsl(259.20000000000005, 77.2%, 51.5%)" stroke-width="1.5"></path><path d="M1587.94 396.36L1549.12 552.05" stroke="hsl(259.20000000000005, 77.2%, 51.5%)" stroke-width="1.5"></path><path d="M1587.94 396.36L1538.12 202.69" stroke="hsl(259.20000000000005, 77.2%, 51.5%)" stroke-width="1.5"></path><path d="M1549.12 552.05L1549.12 552.05" stroke="hsl(259.20000000000005, 77.2%, 51.5%)" stroke-width="1.5"></path><path d="M1549.12 552.05L1424.71 352.27" stroke="hsl(259.20000000000005, 77.2%, 51.5%)" stroke-width="1.5"></path><circle r="25" cx="85.12" cy="513.18" fill="url(#SvgjsRadialGradient1007)"></circle><circle r="25" cx="374.14" cy="705.86" fill="url(#SvgjsRadialGradient1007)"></circle><circle r="25" cx="686.27" cy="400.4" fill="url(#SvgjsRadialGradient1007)"></circle><circle r="25" cx="820.08" cy="704.82" fill="url(#SvgjsRadialGradient1007)"></circle><circle r="25" cx="1282.66" cy="654.91" fill="url(#SvgjsRadialGradient1007)"></circle><circle r="25" cx="1433.69" cy="67.53" fill="url(#SvgjsRadialGradient1007)"></circle><circle r="25" cx="1424.71" cy="352.27" fill="url(#SvgjsRadialGradient1007)"></circle><circle r="25" cx="1414.82" cy="521.93" fill="url(#SvgjsRadialGradient1007)"></circle><circle r="25" cx="1455.51" cy="648.6" fill="url(#SvgjsRadialGradient1007)"></circle><circle r="5" cx="-81" cy="644.02" fill="#a48bd9"></circle><circle r="5" cx="61.35" cy="647.66" fill="#a48bd9"></circle><circle r="5" cx="260.56" cy="557.78" fill="#a48bd9"></circle><circle r="5" cx="257.97" cy="653.01" fill="#a48bd9"></circle><circle r="5" cx="342.3" cy="490.33" fill="#a48bd9"></circle><circle r="5" cx="497.47" cy="503.71" fill="#a48bd9"></circle><circle r="5" cx="525.23" cy="698.52" fill="#a48bd9"></circle><circle r="5" cx="701.47" cy="555.31" fill="#a48bd9"></circle><circle r="5" cx="828.75" cy="353.51" fill="#a48bd9"></circle><circle r="5" cx="832.04" cy="513.35" fill="#a48bd9"></circle><circle r="5" cx="942.79" cy="361.5" fill="#a48bd9"></circle><circle r="5" cx="1007.41" cy="544.32" fill="#a48bd9"></circle><circle r="5" cx="950.26" cy="700.08" fill="#a48bd9"></circle><circle r="5" cx="1120.08" cy="259.69" fill="#a48bd9"></circle><circle r="5" cx="1135.32" cy="554.69" fill="#a48bd9"></circle><circle r="5" cx="1150.78" cy="664.78" fill="#a48bd9"></circle><circle r="5" cx="1298.17" cy="-69.37" fill="#a48bd9"></circle><circle r="5" cx="1240.32" cy="109.03" fill="#a48bd9"></circle><circle r="5" cx="1247.55" cy="220.72" fill="#a48bd9"></circle><circle r="5" cx="1276.45" cy="379.48" fill="#a48bd9"></circle><circle r="5" cx="1311.76" cy="493.91" fill="#a48bd9"></circle><circle r="5" cx="1405.76" cy="-83.77" fill="#a48bd9"></circle><circle r="5" cx="1411.54" cy="212.83" fill="#a48bd9"></circle><circle r="5" cx="1537.59" cy="-96.17" fill="#a48bd9"></circle><circle r="5" cx="1590.03" cy="100.78" fill="#a48bd9"></circle><circle r="5" cx="1538.12" cy="202.69" fill="#a48bd9"></circle><circle r="5" cx="1587.94" cy="396.36" fill="#a48bd9"></circle><circle r="5" cx="1549.12" cy="552.05" fill="#a48bd9"></circle></g><defs><mask id="SvgjsMask1006"><rect width="1440" height="560" fill="#ffffff"></rect></mask><radialGradient id="SvgjsRadialGradient1007"><stop stop-color="#ffffff" offset="0.1"></stop><stop stop-color="rgba(73, 23, 179, 1)" offset="0.2"></stop><stop stop-color="rgba(73, 23, 179, 0)" offset="1"></stop></radialGradient></defs></svg>